<svg width="198" height="55" viewBox="0 0 198 55" fill="none" xmlns="http://www.w3.org/2000/svg">
<g clip-path="url(#clip0_1_4010)">
<path d="M60.4871 47.0001V32.2728H64.447V34.8424H64.6004C64.8689 33.9284 65.3195 33.238 65.9523 32.7714C66.5852 32.2984 67.3139 32.0619 68.1384 32.0619C68.343 32.0619 68.5635 32.0747 68.8 32.1002C69.0365 32.1258 69.2443 32.161 69.4232 32.2057V35.83C69.2315 35.7725 68.9662 35.7213 68.6274 35.6766C68.2886 35.6318 67.9786 35.6095 67.6974 35.6095C67.0965 35.6095 66.5596 35.7405 66.0866 36.0026C65.62 36.2583 65.2492 36.6162 64.9744 37.0764C64.7059 37.5367 64.5717 38.0672 64.5717 38.6681V47.0001H60.4871ZM77.5611 47.2877C76.0462 47.2877 74.7422 46.9809 73.6492 46.3673C72.5625 45.7473 71.7252 44.8715 71.1371 43.7402C70.549 42.6024 70.255 41.2568 70.255 39.7036C70.255 38.1887 70.549 36.8591 71.1371 35.7149C71.7252 34.5708 72.5529 33.6791 73.6204 33.0399C74.6943 32.4007 75.9535 32.0811 77.3981 32.0811C78.3697 32.0811 79.2742 32.2377 80.1115 32.5509C80.9553 32.8577 81.6904 33.3211 82.3168 33.9412C82.9496 34.5612 83.4418 35.341 83.7933 36.2806C84.1449 37.2139 84.3207 38.3069 84.3207 39.5598V40.6816H71.885V38.1503H80.4759C80.4759 37.5622 80.348 37.0413 80.0924 36.5875C79.8367 36.1336 79.4819 35.7789 79.0281 35.5232C78.5806 35.2611 78.0597 35.1301 77.4652 35.1301C76.8452 35.1301 76.2955 35.2739 75.8161 35.5615C75.3431 35.8428 74.9723 36.2231 74.7039 36.7025C74.4354 37.1755 74.298 37.7029 74.2916 38.2845V40.6912C74.2916 41.4198 74.4258 42.0495 74.6943 42.58C74.9691 43.1105 75.3558 43.5196 75.8544 43.8073C76.353 44.0949 76.9443 44.2387 77.6282 44.2387C78.0821 44.2387 78.4975 44.1748 78.8747 44.047C79.2518 43.9191 79.5746 43.7274 79.8431 43.4717C80.1115 43.216 80.3161 42.9028 80.4567 42.5321L84.2344 42.7813C84.0426 43.689 83.6495 44.4816 83.0551 45.1592C82.467 45.8304 81.7063 46.3545 80.7731 46.7316C79.8463 47.1024 78.7756 47.2877 77.5611 47.2877ZM99.2397 36.4724L95.5004 36.7025C95.4365 36.3829 95.299 36.0953 95.0881 35.8396C94.8772 35.5775 94.5991 35.3698 94.2539 35.2164C93.9152 35.0566 93.5093 34.9767 93.0362 34.9767C92.4034 34.9767 91.8697 35.1109 91.435 35.3794C91.0004 35.6414 90.783 35.993 90.783 36.434C90.783 36.7856 90.9237 37.0828 91.2049 37.3257C91.4862 37.5686 91.9688 37.7636 92.6527 37.9106L95.3182 38.4475C96.75 38.7416 97.8175 39.2146 98.5206 39.8666C99.2237 40.5186 99.5753 41.3751 99.5753 42.4362C99.5753 43.4014 99.2909 44.2483 98.722 44.977C98.1595 45.7057 97.386 46.2746 96.4017 46.6837C95.4237 47.0864 94.2955 47.2877 93.0171 47.2877C91.0675 47.2877 89.5142 46.8818 88.3573 46.0701C87.2067 45.2519 86.5323 44.1397 86.3342 42.7334L90.3516 42.5225C90.473 43.1169 90.7671 43.5708 91.2337 43.884C91.7003 44.1908 92.298 44.3442 93.0267 44.3442C93.7426 44.3442 94.3178 44.2068 94.7525 43.9319C95.1936 43.6507 95.4173 43.2895 95.4237 42.8485C95.4173 42.4777 95.2607 42.1741 94.9539 41.9376C94.647 41.6947 94.174 41.5093 93.5348 41.3815L90.9844 40.8733C89.5462 40.5857 88.4755 40.0871 87.7724 39.3776C87.0757 38.6681 86.7273 37.7636 86.7273 36.6642C86.7273 35.7181 86.983 34.9032 87.4943 34.2192C88.0121 33.5353 88.7376 33.0079 89.6708 32.6372C90.6105 32.2664 91.7099 32.0811 92.9691 32.0811C94.8292 32.0811 96.293 32.4742 97.3605 33.2604C98.4343 34.0466 99.0607 35.1173 99.2397 36.4724ZM109.981 32.2728V35.341H101.112V32.2728H109.981ZM103.125 28.7444H107.21V42.4745C107.21 42.8517 107.267 43.1457 107.382 43.3566C107.497 43.5612 107.657 43.705 107.862 43.7881C108.073 43.8712 108.316 43.9127 108.59 43.9127C108.782 43.9127 108.974 43.8968 109.166 43.8648C109.358 43.8264 109.505 43.7977 109.607 43.7785L110.249 46.8179C110.045 46.8818 109.757 46.9554 109.386 47.0385C109.016 47.1279 108.565 47.1823 108.034 47.2014C107.05 47.2398 106.187 47.1088 105.446 46.8083C104.711 46.5079 104.138 46.0413 103.729 45.4085C103.32 44.7757 103.119 43.9767 103.125 43.0115V28.7444ZM116.841 47.2782C115.901 47.2782 115.064 47.1152 114.329 46.7892C113.594 46.4568 113.012 45.9678 112.584 45.3222C112.162 44.6702 111.951 43.8584 111.951 42.8868C111.951 42.0686 112.101 41.3815 112.402 40.8254C112.702 40.2693 113.111 39.8218 113.629 39.4831C114.147 39.1443 114.735 38.8886 115.393 38.716C116.058 38.5434 116.755 38.422 117.483 38.3517C118.34 38.2622 119.03 38.1791 119.554 38.1024C120.079 38.0193 120.459 37.8978 120.695 37.738C120.932 37.5782 121.05 37.3417 121.05 37.0285V36.971C121.05 36.3637 120.858 35.8939 120.475 35.5615C120.098 35.2291 119.561 35.063 118.864 35.063C118.129 35.063 117.544 35.226 117.109 35.5519C116.675 35.8715 116.387 36.2742 116.247 36.76L112.469 36.4532C112.661 35.5583 113.038 34.7849 113.6 34.1329C114.163 33.4745 114.888 32.9696 115.777 32.618C116.672 32.26 117.707 32.0811 118.883 32.0811C119.701 32.0811 120.484 32.1769 121.232 32.3687C121.987 32.5605 122.655 32.8577 123.236 33.2604C123.824 33.6631 124.288 34.1809 124.627 34.8137C124.965 35.4401 125.135 36.1912 125.135 37.0669V47.0001H121.261V44.9578H121.146C120.91 45.4181 120.593 45.824 120.197 46.1755C119.801 46.5207 119.324 46.7924 118.768 46.9905C118.212 47.1823 117.57 47.2782 116.841 47.2782ZM118.011 44.4593C118.612 44.4593 119.142 44.341 119.602 44.1045C120.063 43.8616 120.424 43.5356 120.686 43.1265C120.948 42.7174 121.079 42.254 121.079 41.7363V40.1734C120.951 40.2565 120.775 40.3332 120.552 40.4035C120.334 40.4674 120.088 40.5282 119.813 40.5857C119.538 40.6368 119.264 40.6848 118.989 40.7295C118.714 40.7679 118.465 40.803 118.241 40.835C117.761 40.9053 117.343 41.0171 116.985 41.1706C116.627 41.324 116.349 41.5317 116.151 41.7938C115.953 42.0495 115.853 42.3691 115.853 42.7526C115.853 43.3087 116.055 43.7338 116.457 44.0278C116.867 44.3154 117.384 44.4593 118.011 44.4593ZM137.748 40.7295V32.2728H141.832V47.0001H137.911V44.325H137.757C137.425 45.188 136.872 45.8815 136.099 46.4056C135.332 46.9298 134.395 47.1919 133.289 47.1919C132.305 47.1919 131.439 46.9681 130.691 46.5207C129.943 46.0733 129.358 45.4372 128.936 44.6127C128.521 43.7881 128.31 42.8005 128.304 41.65V32.2728H132.388V40.9213C132.394 41.7906 132.628 42.4777 133.088 42.9827C133.548 43.4877 134.165 43.7402 134.938 43.7402C135.431 43.7402 135.891 43.6283 136.319 43.4046C136.747 43.1745 137.093 42.8357 137.355 42.3882C137.623 41.9408 137.754 41.3879 137.748 40.7295ZM145.099 47.0001V32.2728H149.059V34.8424H149.213C149.481 33.9284 149.932 33.238 150.565 32.7714C151.197 32.2984 151.926 32.0619 152.751 32.0619C152.955 32.0619 153.176 32.0747 153.412 32.1002C153.649 32.1258 153.857 32.161 154.036 32.2057V35.83C153.844 35.7725 153.579 35.7213 153.24 35.6766C152.901 35.6318 152.591 35.6095 152.31 35.6095C151.709 35.6095 151.172 35.7405 150.699 36.0026C150.232 36.2583 149.862 36.6162 149.587 37.0764C149.318 37.5367 149.184 38.0672 149.184 38.6681V47.0001H145.099ZM159.925 47.2782C158.985 47.2782 158.148 47.1152 157.413 46.7892C156.678 46.4568 156.096 45.9678 155.668 45.3222C155.246 44.6702 155.035 43.8584 155.035 42.8868C155.035 42.0686 155.185 41.3815 155.486 40.8254C155.786 40.2693 156.195 39.8218 156.713 39.4831C157.231 39.1443 157.819 38.8886 158.477 38.716C159.142 38.5434 159.839 38.422 160.567 38.3517C161.424 38.2622 162.114 38.1791 162.638 38.1024C163.163 38.0193 163.543 37.8978 163.779 37.738C164.016 37.5782 164.134 37.3417 164.134 37.0285V36.971C164.134 36.3637 163.942 35.8939 163.559 35.5615C163.182 35.2291 162.645 35.063 161.948 35.063C161.213 35.063 160.628 35.226 160.193 35.5519C159.759 35.8715 159.471 36.2742 159.331 36.76L155.553 36.4532C155.745 35.5583 156.122 34.7849 156.684 34.1329C157.247 33.4745 157.972 32.9696 158.861 32.618C159.756 32.26 160.791 32.0811 161.967 32.0811C162.785 32.0811 163.568 32.1769 164.316 32.3687C165.071 32.5605 165.739 32.8577 166.32 33.2604C166.908 33.6631 167.372 34.1809 167.711 34.8137C168.049 35.4401 168.219 36.1912 168.219 37.0669V47.0001H164.345V44.9578H164.23C163.994 45.4181 163.677 45.824 163.281 46.1755C162.885 46.5207 162.408 46.7924 161.852 46.9905C161.296 47.1823 160.654 47.2782 159.925 47.2782ZM161.095 44.4593C161.696 44.4593 162.226 44.341 162.686 44.1045C163.147 43.8616 163.508 43.5356 163.77 43.1265C164.032 42.7174 164.163 42.254 164.163 41.7363V40.1734C164.035 40.2565 163.859 40.3332 163.636 40.4035C163.418 40.4674 163.172 40.5282 162.897 40.5857C162.622 40.6368 162.348 40.6848 162.073 40.7295C161.798 40.7679 161.549 40.803 161.325 40.835C160.845 40.9053 160.427 41.0171 160.069 41.1706C159.711 41.324 159.433 41.5317 159.235 41.7938C159.037 42.0495 158.937 42.3691 158.937 42.7526C158.937 43.3087 159.139 43.7338 159.541 44.0278C159.951 44.3154 160.468 44.4593 161.095 44.4593ZM175.472 38.4859V47.0001H171.388V32.2728H175.28V34.8712H175.453C175.779 34.0147 176.325 33.3371 177.092 32.8385C177.859 32.3336 178.79 32.0811 179.883 32.0811C180.905 32.0811 181.797 32.3048 182.558 32.7522C183.318 33.1997 183.91 33.8389 184.331 34.6698C184.753 35.4944 184.964 36.4788 184.964 37.623V47.0001H180.88V38.3517C180.886 37.4504 180.656 36.7473 180.189 36.2423C179.723 35.7309 179.08 35.4752 178.262 35.4752C177.712 35.4752 177.227 35.5935 176.805 35.83C176.389 36.0665 176.063 36.4117 175.827 36.8655C175.597 37.313 175.478 37.8531 175.472 38.4859ZM196.017 32.2728V35.341H187.148V32.2728H196.017ZM189.161 28.7444H193.246V42.4745C193.246 42.8517 193.303 43.1457 193.419 43.3566C193.534 43.5612 193.693 43.705 193.898 43.7881C194.109 43.8712 194.352 43.9127 194.627 43.9127C194.818 43.9127 195.01 43.8968 195.202 43.8648C195.394 43.8264 195.541 43.7977 195.643 43.7785L196.285 46.8179C196.081 46.8818 195.793 46.9554 195.422 47.0385C195.052 47.1279 194.601 47.1823 194.071 47.2014C193.086 47.2398 192.223 47.1088 191.482 46.8083C190.747 46.5079 190.175 46.0413 189.765 45.4085C189.356 44.7757 189.155 43.9767 189.161 43.0115V28.7444Z" fill="#101A24"/>
<path d="M15.2857 38.0714C20.6113 38.0714 24.9285 33.7541 24.9285 28.4285C24.9285 23.1029 20.6113 18.7856 15.2857 18.7856C9.96008 18.7856 5.64282 23.1029 5.64282 28.4285C5.64282 33.7541 9.96008 38.0714 15.2857 38.0714Z" stroke="url(#paint0_linear_1_4010)" stroke-width="3.57143"/>
<path d="M0.00261579 30.7144C0.000871931 30.8332 0 30.9522 0 31.0715C0 44.2869 10.7132 55.0001 23.9286 55.0001C37.1439 55.0001 47.8571 44.2869 47.8571 31.0715C47.8571 30.9522 47.8563 30.8332 47.8545 30.7144H0.00261579Z" fill="url(#paint1_linear_1_4010)"/>
<path d="M35.6429 24.5001C38.0098 24.5001 39.9286 22.5814 39.9286 20.2144C39.9286 17.8475 38.0098 15.9287 35.6429 15.9287C33.276 15.9287 31.3572 17.8475 31.3572 20.2144C31.3572 22.5814 33.276 24.5001 35.6429 24.5001Z" stroke="#EAA427" stroke-width="2.14286"/>
<path d="M27.7857 10.2145C30.1526 10.2145 32.0714 8.29571 32.0714 5.92878C32.0714 3.56184 30.1526 1.64307 27.7857 1.64307C25.4188 1.64307 23.5 3.56184 23.5 5.92878C23.5 8.29571 25.4188 10.2145 27.7857 10.2145Z" stroke="#EA7727" stroke-width="2.14286"/>
</g>
<defs>
<linearGradient id="paint0_linear_1_4010" x1="7.42859" y1="20.2142" x2="22.4286" y2="37.7142" gradientUnits="userSpaceOnUse">
<stop stop-color="#EA6D27"/>
<stop offset="1" stop-color="#EAA827"/>
</linearGradient>
<linearGradient id="paint1_linear_1_4010" x1="6.42857" y1="30.7144" x2="35" y2="46.4286" gradientUnits="userSpaceOnUse">
<stop stop-color="#FF9400"/>
<stop offset="1" stop-color="#EA6D27"/>
</linearGradient>
<clipPath id="clip0_1_4010">
<rect width="198" height="55" fill="white"/>
</clipPath>
</defs>
</svg>
